<svg width="28" height="26" viewBox="0 0 28 26" fill="none" xmlns="http://www.w3.org/2000/svg">
<path d="M20.3 1.08319C17.7917 1.08679 15.4419 2.22281 14 4.12859C12.5581 2.22281 10.2083 1.08679 7.7 1.08319C3.59798 1.08319 0 4.62709 0 8.66652C0 12.6033 2.39395 16.658 6.92344 20.3926C9.02207 22.1195 11.3242 23.6208 13.7858 24.8681C13.9202 24.9324 14.0798 24.9324 14.2142 24.8681C16.6749 23.6208 18.9763 22.1193 21.0743 20.3926C25.6061 16.658 28 12.6033 28 8.66652C28 4.62709 24.402 1.08319 20.3 1.08319V1.08319ZM14 23.9904C12.286 23.1121 0.933333 16.976 0.933333 8.66652C0.933333 5.08856 4.09495 1.94986 7.7 1.94986C10.1423 1.95388 12.3936 3.17728 13.5935 5.15267C13.6833 5.28005 13.8362 5.35665 14 5.35665C14.1638 5.35665 14.3167 5.28005 14.4065 5.15267C15.6064 3.17728 17.8577 1.95388 20.3 1.94986C23.905 1.94986 27.0667 5.08856 27.0667 8.66652C27.0667 16.976 15.714 23.1121 14 23.9904Z" fill="#E066FF"/>
</svg>
